<?xml version="1.0" encoding="UTF-8"?>
<svg id="Layer_2" xmlns="http://www.w3.org/2000/svg" viewBox="0 0 1007.37 893.1">
  <defs>
    <style>
      .cls-1 {
        fill: #fff;
      }
    </style>
  </defs>
  <g id="Layer_1-2" data-name="Layer_1">
    <g>
      <path class="cls-1" d="M925.46,200.49c2.1,2.1,5.03,6.91,6.18,9.74,7.22,17.66,13.5,43.42,18.77,62.31,9.66,34.57,26.34,71.07-9.25,96.93-4.76,3.46-10.13,5.46-14.29,8.96,5.65,25.24,17.96,49.58,15.32,76.06-6.29,63.09-69.15,80.23-117.44,100.72-79.96,33.94-161.25,65.25-241.66,98.14-19.65,8.04-39.93,14.69-59.08,23.94-3.57,1.73-22.85,10.88-22,14.66,3.09,3.73,10.23,2.01,14.53,1.04,20.78-4.66,43.08-15.05,64.22-19.78l2.34-.06c.47,2.85-1.5,4.17-3.54,5.62-90.19,29.25-179.22,61.87-268.16,94.81-16.45,6.09-33.68,10.49-49.74,17.84-7.28,3.33-8.13,8.45-3.26,14.81l7.1,3.02c-1.67.04-3.44-.23-5.08.23-33.3,9.45-69.75,20.68-104.49,22.94-6.59.43-23.97,1.36-24.6-8.26-.49-7.46,11.97-10.74,17.37-12.48,23.32-7.51,48.71-11.85,71.69-20.99,8.22-3.27,15.92-8.23,24.17-11.54,27.58-11.06,57.27-19.84,84.34-31.5,6.47-2.78,16.33-6.94,21.89-10.93,1.07-.76,2.4-1.35,1.13-2.79-6.28-3.34-13.21-4.44-19.79-7.24-14.56-6.2-26.55-17.17-35.75-29.88l-3.37-.59c-30.74,9.91-61.63,20.3-93.15,27.63-13.17,3.06-26.56,4.83-39.79,7.51-18.82,3.81-49.42,13.51-67.61,11.05-11.43-1.54-16.58-9.55-5.88-16.97,15.16-10.5,54.49-18.69,73.65-25.78,2.45-.91,18.38-7.28,18.92-8.15,2.18-3.47-8.37-15.27-10.59-18.44-2-2.85-6.98-12.98-9.76-13.47-21.47,3.61-42.62,9.91-63.99,14.22-11.9,2.4-48.49,10.5-58.03,5.53-4.47-2.33-5.29-7.91-2.47-11.97,4.62-6.66,45.74-17.23,56.42-21.77,12.28-5.22,24.17-12.03,36.73-17.33,37.36-15.78,76.35-27.52,113.58-43.77,3.11-1.36,14.87-6.01,15.61-8.58.62-2.15-.91-7.3-1.51-9.72-6.18-24.97-17.5-54.5-25.65-79.57-13.78-42.4-29.15-84.41-41.71-127.22-15.55-53.01-24.93-101.49,15.9-146.27,28.32-31.07,61.25-37.42,98.48-52.12,107.34-42.38,214.24-85.9,321.49-128.36,37.37-14.79,73.8-35.41,114.4-18.86,7.49,3.05,15.99,10.29,23.4,11.35,16.75,2.41,28.58-1.29,46.78,4.38,56.95,17.75,65.47,77.23,80.4,126.19,1.94,6.36,7.17,26.41,9.91,30.63s7.97,3.58,12.07,5.3c4.38,1.84,11.54,5.52,14.84,8.81ZM729.83,35.06c1.93-2.59-10.03-5.91-11.57-6.27-19.72-4.61-37.96,3.52-55.99,10.62,5.69,4.1,13.58-1.6,19.26-2.94,8.68-2.05,21.61-3.47,30.4-2.31,3.02.4,6.85,2.75,10.69,2.65,2.47-.06,4.78-1.49,7.22-1.75ZM299.22,402.78c-3.92-25.11-14.82-49.01-16.38-74.69-2.59-42.72,26.04-86.86,64.07-104.94,39.19-18.63,84.7-33.13,125.42-49.31,88.33-35.11,178.16-74.94,267.62-105.96,28.22-9.79,41.56-15.69,72.17-9.38,2.62.54,11.46,4.45,7.97-3.14-2.53-5.51-26.67-11.99-32.84-12.54-33.08-2.97-90.82,22.77-123.04,35.24-64.73,25.05-128.7,52.31-193.11,78.15-51.03,20.47-144.97,46.71-178.55,88.85-32.16,40.36-29.78,81.91-14.76,128.62,1.36,4.24,9.05,26.97,10.81,28.76,2.55,2.6,7.5,1.4,10.6.34ZM651.64,43.76c-2.97.79-6.84,1.44-9.65,2.41-13.74,4.73-28.75,12.93-42.49,18.33-13.19,5.19-27.39,8.72-40.52,14.51-2.83,1.25-6.83,2.76-8.7,5.29,11.73-1.52,26.59-5.3,37.33-10.44,4.73-2.26,9.44-6.67,14.8-8.37,14.63-4.63,27.94-7.88,41.52-16.4l7.7-5.33ZM801.18,81.32c2.3-12.53-27.8-5.37-18.33,2.58,4.38,3.67,13.24-1.68,18.33-2.58ZM813.15,88.85c1.39,1.55,6.63,4.12,8.85,6.1,16.14,14.43,23.48,33.71,30.17,53.82,8.13,24.44,13.12,50.11,22.44,74.14,2.36,1.68,8.92-3.2,11.18-4.41,1.64-2.58-1.89-8.03-2.73-10.84-5.99-20.08-10.63-40.66-16.41-60.82-4.61-16.05-12.78-52.03-22.4-63.52-1.76-2.09-8.27-8.22-10.66-8.67-2.6-.49-10.36,2.12-12.91,3.46-1.46.77-7.79,5.95-8.33,7.18-.62,1.21-.01,2.62.82,3.55ZM756.62,80.64c-1.79.36-17.5,7.09-18.2,7.93-2.3,2.26,2.05,8.84,3.98,9.8.72.64,1.19.19,1.85-.04,2.65-.91,18.28-11.18,18.37-13.52-.71-3.74-2.12-4.95-6.01-4.17ZM538.69,89.14c-4.68-.09-9.4,1.52-13.76,3.12-13.06,4.77-25.6,11.42-38.38,16.64-13.6,5.56-36.17,10.05-47.97,17.68-1.29.83-2.6,1.16-2.21,3.09,11.78-2.46,23.5-5.82,34.73-10.15,20.6-7.94,40.94-16.42,60.86-26.03l6.73-4.36ZM695.36,105.81c-1.58,1.93-2.25,8.47.33,9.3l2.55-.08c4.14-3.46,21.34-8.46,22.72-13.08,1.78-5.99-3.24-5.59-7.6-4.68-2.72.57-16.53,6.75-18,8.53ZM647.87,133.44c1.29.32,2.74.25,4.01-.14,2.73-.84,17.19-8.13,19.01-9.95,1.63-1.63,3.23-3.94,1.57-6.29-2.71-3.83-32.13,5.78-24.59,16.38ZM605.56,140.54c-2.64,2.76.2,10.44,3.09,10.41,1.23-.01,21.27-10.13,21.65-11.3,1.1-3.43-2.46-7.32-6.11-7.06-1.01.07-17.94,7.22-18.63,7.95ZM418.02,135.47c-1.2-1.11-27.12,9.86-30.57,11.41-1.67.75-3.61,1.67-5.16,2.6-1.24.73-2.44-.18-1.9,2.39,3.28.25,6.36-.79,9.44-1.65,5.96-1.66,20.01-6.63,25.04-9.63,1.15-.69,3.93-4.4,3.16-5.12ZM578.05,151.11c-3.46.48-14.97,5.24-17.64,7.52-4.66,3.97-4.74,9.48,1.71,10.5,3.37-2.77,24.11-9.09,23.79-12.73s-4.57-5.73-7.85-5.28ZM373.62,153.82c-17.84,3.4-33.73,13.05-50.49,19.48-56.04,21.51-122.99,33.08-129.91,105.64-.31,3.22-.65,19.82.35,21.62,1.39,2.49,3.21-2.52,3.56-3.23,7.27-14.58,8.87-31.36,17.39-46.32,21.28-37.34,58.77-47.69,94.12-66.13,4.54-2.36,10.1-7.34,14.88-9.25s11-2.39,16.09-4.18c11.65-4.08,25.5-8.55,33.99-17.64ZM766.31,231.78c1.86-1.45-2.41-15.99-3.38-18.88-16.11-48.21-67.66-66.57-106.97-31.12-22.34,20.14-26.46,52.83-23.61,81.58.39,3.98,1.67,17.26,5.79,16.54l55.85-21.94c1.94-3.06-6.28-5.22-8.87-6.83-14.73-9.17-21.45-23.34-16.98-40.73,7.68-29.85,46.33-37.87,60.87-9.92,8.55,16.43,1.86,30.71-7.8,44.68l1.35,2.28,43.72-15.64ZM531.74,171.37c-3.31.34-22.09,7.89-23.94,9.94-2.26,2.5-.54,8.8,3.14,8.05,5.1-4.11,22.73-7.13,25.12-12.65,1.62-3.75-.43-5.74-4.31-5.34ZM481.48,188.77c-2.26.47-18.74,8.48-20.02,9.92-2,2.23-2.16,9.28,2.41,9.26,5.1-.02,17.58-9.84,23.68-11.16,2.53-5.26-.01-9.26-6.06-8.01ZM700.61,188.78c-10.59,2.16-13.56,17.05-7.01,24.91,10.51,12.63,29.29-3.43,21.94-19.05-3.15-6.69-7.88-7.3-14.93-5.86ZM424.79,223.31c1.28,1.26,15.8-6.1,18.04-7.54,7.4-4.76-1.97-9.7-9.09-7.15-5.55,1.99-10.79,8.53-8.95,14.69ZM402.36,221.55c-4.94.55-16.78,8.54-10.38,13.89,1.75.87,14.79-6.44,15.92-8.27,2.37-3.82-2.02-6.01-5.54-5.62ZM942.86,338.83c6.4-5.91,2.22-20.59.25-28.1-4.77-18.25-10.46-36.51-15.88-54.59-2.29-7.62-5.38-24.82-9.7-30.85-1.07-1.49-1.9-2.11-3.82-2.09-.8-.01-6.5,6.8-8.27,8.23-9.92,7.95-29.72,16.6-41.74,21.97-21.68,9.7-65.26,22.43-79.79,39.91-11.42,13.73-16.51,46.42-8.59,62.61,1.13,2.32,9.65,13.95,12.42,11.23.82-9.66-3.75-19.95-3.93-29.43-.37-20.01,11.34-37.8,28.68-46.69,21.77-11.16,46.33-18,68.57-27.96,10.45-4.68,20.28-10.74,30.66-15.59,12.91,29.55,22.34,60.97,28.55,92.64.1.12,2.18-.93,2.57-1.29ZM349.68,256.89c3.45,1.97,14.78-8.06,17.21-10.87,3.53-4.09,5.24-10.51-2.2-8.99-7.89,1.61-22.9,10.44-15.01,19.86ZM509.74,330.46l60.79-21.71c-6.89-9.18-8.77-21.19-13.99-31.36-16.89-32.89-55.46-47.38-88.61-28.78-33.83,18.98-46.57,54.23-41.11,91.89.56,3.85,3.43,17.21,4.91,20.18.34.68.49,1.38,1.36,1.59,18.59-7.18,37.79-13.81,56.04-21.98,1.94-.87,11.87-5.34,11.88-6.44-2.2-2.63-6-1-9.05-1.55-42.58-7.59-33.49-67.2.97-71.23,37.59-4.4,51.98,39.91,25,62.65-1.76,1.49-4.28,2.52-6.4,4.24-1.01.82-2.41.02-1.81,2.51ZM325.22,287.84c1.81-6.21,12.89-15.82,10.25-22.03-1.05-2.46-4.76-4.58-7.51-3.73s-8.84,12.73-9.3,15.83c-.65,4.4,1.2,11.23,6.56,9.92ZM499.82,266.01c-5.82,1.21-11.51,9.33-12.08,15.02-1.04,10.42,11.84,21.34,21.51,14.68,13.63-9.38,10.16-33.77-9.44-29.7ZM313.54,298.84c-6.19-6.35-9.99,13.13-10.27,16.78-.78,10.16,7.85,14.66,9.48,7.54.9-3.94,3.18-21.87.79-24.33ZM702.52,303.73c-2.52-2.12-5.62-.57-8.36.24-12.99,3.82-27.76,12.13-40.6,17.31-33.18,13.38-66.94,25.46-100.07,38.94-7.41,3.02-29.56,10.83-33.6,16.6-5.34,7.63,5.93,25.96,11.11,32.29,31.32,38.26,98.47,32.32,133.64,2.41,16.97-14.43,30.92-39.51,36.5-61,2.31-8.89,8.43-40.84,1.37-46.8ZM857.78,336.26c0-12.91-10.46-23.37-23.37-23.37s-23.37,10.46-23.37,23.37,10.46,23.37,23.37,23.37,23.37-10.46,23.37-23.37ZM315.51,343.22c-2.25-1.56-5.9-.83-7.46,1.34-2.21,3.14,2.39,20.32,4.44,21.7,2.72,1.83,5.28-.16,7.89-1.19l-4.87-21.85ZM321.2,382.72c-6.38,1.84-1.06,21.8,2.19,24.6,3.04,2.62,9.08-.95,8.7-5.78-.19-2.38-6.16-17.71-7.69-18.5-1.06-.55-2.05-.65-3.2-.32ZM910.19,391.45c-2.44-1.49-10.96.83-11.47,4.2-.62,4.07,7.84,26.01,9.43,32.11,2.94,11.31,4.98,20.63,4.12,32.54-.52,7.29-4.52,16.6-4.76,22.34-.43,10.12,8.61-6.12,9.77-8.64,8.39-18.22,8.39-33.61,3.19-52.76-.96-3.52-8.93-28.95-10.28-29.77ZM343.61,447.19c1.45-1.71-5.18-19.4-7.14-21.17-2.53-2.28-8.13-.92-7.92,3.2.13,2.54,3.09,15.66,4.47,17.36,2.34,2.89,7.53,1.26,10.59.6ZM344.41,463.84c-8.23,1.59.33,23.23,2.84,23.83,1.42.34,6.43-.9,6.95-2.4.99-2.82-1.65-9.42-2.77-12.44-1.28-3.47-2.35-9.9-7.02-8.99ZM902.63,467.55c-4.86-.05-6.79,5.63-10.1,8.71-5.32,4.95-19.97,11.82-7.77,17.36,9.32-4.86,17.29-15.41,17.87-26.07ZM863.87,496.65c-3.33-2.11-20.56,5.16-23.01,8.07-2.08,2.46-.55,5.58.47,8.2.98,1.51,2.07.89,3.39.55,4.19-1.08,24.61-10.45,19.14-16.82ZM361.26,532.03c1.52.89,6.25-.27,7.12-1.73,1.2-2.01-5.66-21.41-8.26-22.7-13.08-6.48-2.25,22.44,1.14,24.43ZM476.64,511.19c-3.26.73-4.91,3.69-5.97,6.58-9.82,26.7,25.19,27.93,24.67,6.25-.25-10.42-9.11-14.98-18.7-12.82ZM823.23,515.08c-1.47-1.13-2.85-1.15-4.6-.82-1.01.19-17.87,7.78-18.72,8.39-3.81,2.72-.6,10.92,5.46,9.37.9-.23,15.79-8.04,16.52-8.62,2.85-2.28,3.3-5.22,1.34-8.31ZM429.36,530.52c-74.61,30.14-149.96,58.32-224.69,88.08-13.89,5.53-30.62,9.83-43.79,17.03-4.81,2.63-5.89,4.39-6.37,10.03-.56,6.58-.98,8.71,6.13,8.09,20.96-1.84,54.64-14.14,75.44-21.11,30.87-10.35,61.07-22.71,91.65-33.84,32.65-11.89,69.01-22.35,100.6-36.48,5.89-2.63,16.32-7.4,18-13.86,3.48-13.46-4.45-18.59-16.97-17.93ZM774.96,531.41c-2.66.46-16.65,8.32-18.62,10.42-3.45,3.68-2.18,11,3.6,8.48,2.39-1.04,18.96-9.44,19.69-10.28.64-.74,1.33-1.36,1.3-2.44l-3.52-6.2c-.83-.3-1.62-.12-2.46.03ZM550.05,548.89c-10.22,1.26-27.17,11.46-37.43,15.66-80.21,32.87-160.78,64.03-242.25,93.69-27.79,10.12-55.35,20.89-83.29,30.62-6.82,2.81-2.81,15.35,3.56,16.21,12.16,1.63,36.25-5.02,48.59-8.46,96.48-26.91,193.54-67.48,285.96-105.97,10.36-4.31,34.37-10.44,39.98-19.88,7.37-12.4-1.81-23.53-15.13-21.88ZM731.54,551.7c-5.73.73-24.68,9.69-18.56,17.17,3.26,3.99,6.63-1.17,9.78-2.69,5.09-2.46,17.16-4.99,13.35-12.72-1.18-1.93-2.51-2.02-4.56-1.76ZM690.98,569.14c-3.19-3.32-20.81,7.79-21.78,11.07-1.19,4,.85,6.07,4.89,4.89,3.83-3.46,24.64-7.9,16.89-15.97ZM646.56,585.55c-6.84,1.35-19.68,6.79-14.29,15.76,2.8,2.06,21.17-8.19,21.8-9.22.85-1.4.94-5.39-.43-6.35-2.24-.77-4.79-.64-7.08-.19ZM613.87,602.82c-1.94-3.12-12.63,4.58-15.88,4.65-1.88,1.04-.99,4.59.07,5.85,3.71,4.4,18.86-5.61,15.81-10.5ZM579,614.43c-2.95.58-14.12,5.29-13.78,8.65,1.17,11.52,14.11-.3,18.95-2.47,1.88-1.62-.92-5.7-2.72-6.21-.83-.29-1.62-.14-2.45.03ZM541.35,631.87c-2.67.44-16.38,7.07-18.14,8.89-3.77,3.89-1.35,9.49,4.15,8.05,3.84-3.8,20.29-7.67,20.78-12.97-.49-4.43-2.92-4.62-6.79-3.97ZM488.25,655.04c-2.55.49-13.69,5.79-15.69,7.5-3.21,2.76-4.1,7.62.96,7.81,3.54.13,22.75-7.82,22.73-11.18-1.35-3.98-4.07-4.88-8-4.13ZM440.73,672.66c-4.72-.14-23.79,7.51-14.57,14.08,4.02,2.86,20.52-2.42,20.77-7.26.18-3.4-2.72-6.72-6.21-6.83ZM395.97,702.26c-7.03,10.14,19.37,12.65,20.13,9.01-.58-4.8-17.72-10.53-20.13-9.01Z"/>
      <path class="cls-1" d="M402.58,867.2c13.29-.96,25.63-5.58,38.17-9.62,18.26-5.89,36.73-12.46,53.55-21.74,5.92-3.27,17.13-7.56,16.96-15.01-2.79-10.19-28.3-.46-35.09,1.71-48.85,15.62-97.57,36.08-147.74,47.26-24.91,5.55-54.03,11.75-79.12,15.48-5.76.86-15.45,2.34-20.96,2.27-20.13-.24-17.55-15.39-1.44-21.78,18.56-7.36,45.59-10.64,65.82-17.2,6.49-2.1,21.03-10.57,26.4-7.49,6.49,3.72,2.06,12.58,15.12,11.37,15.35-1.43,44.45-11.91,60.4-16.84,78.58-24.26,156.62-52.44,233.56-81.14,21.45-8,44.13-14.87,65.18-23.63,8.63-3.59,21.12-7.44,21.98-18.6.72-9.27-9.39-15.02-17.63-14.69-14.7.59-38.71,14.02-52.87,19.52-103.79,40.31-208.68,77.41-314.46,112.28l-4.05-.31-37.24-24.57.54-2.42c20.5-5.59,41.26-10.28,61.53-16.66,76.87-24.2,151.59-53.94,227.55-80.4,16.27-5.67,61.75-13.74,64.23-34.23.36-2.97-1.01-12.25.9-13.58,12.36-2.74,22.04-11.06,33.86-16.34,30.69-13.69,65.85-24.1,97.44-36.74,38.33-15.35,81.6-32.44,118.46-50.48,34.77-17.01,69.01-55.12,71.79-95.22,1.59-22.88-5.47-44.96-11.66-66.61.2-2.05,13.3-12.75,15.97-15.96,15-18,19.16-43.95,14.3-66.45-.85-3.95-8.2-25.66-7.06-27.2l1.45.95c44.39,123.91,39.68,261.4-27.69,375.84-75.09,127.56-187,206.96-334.6,229.16-69.92,10.51-131.84,3.75-199.27-15.44-4.55-1.3-10.94-2.29-14.27-5.51ZM750.79,674.33c-9.01,2.03-15.54,19.79-9.9,27.83,12.56,17.89,38.31,2.94,34.09-17.68-1.97-9.62-16.17-11.96-24.19-10.15Z"/>
      <path class="cls-1" d="M623.65,8.03c-7.97,1.05-15.67,4.36-23.15,7.26-51.36,19.91-102.1,41.59-153.26,62.01-65.79,26.26-135.53,50.49-200.04,78.95-51.93,22.91-84.67,58.97-94.35,116.09-3.45,20.36-.15,41.91,4.03,62.02.62,2.99,3.97,10.59,2.98,12.5l-57.49,27.04c-2.38-2.67,15.57-61.14,18.32-69.04C173.73,152.34,291.75,49.5,448.72,13.15c46.1-10.68,118.22-17.61,164.67-9.82,3.72.62,8.45.93,10.26,4.7Z"/>
      <path class="cls-1" d="M104.38,530.2c-1.54-6.24-2.88-12.48-3.81-18.87-1.13-7.77-1.01-16.44-2.13-23.94-.21-1.41-1.02-3.89-2.5-4.3-23.57,4.57-46.96,16.18-70.04,21.4-6.59,1.49-27,5.08-25.85-6.45.18-1.83,2.03-5.06,3.32-6.42,4.41-4.62,36.34-15.54,44.43-18.31,8.38-2.87,34.18-12.42,41.44-11.56,3.52.42,5.43,4.48,9.86,4.78,9.23.62,45.72-13.56,56.6-17.58,5.36-1.98,10.87-3.9,16.16-6.05,3.8-1.54,12.91-7.89,16.03-5.39,2.57,2.06,14.11,40.35,15.55,46.23.4,1.65,1.62,5.69.83,6.95-24.91,12.05-50.6,22.04-76.49,31.69-3.69,1.38-20.87,9.96-23.39,7.8Z"/>
      <path class="cls-1" d="M227.71,566.83l-95.93,36.9c-1.18.13-1.99-.4-2.94-.98-2.72-1.66-9.34-17.21-10.79-21.06s-4.87-20.58-8.57-21.3c-19.51,4.14-50.08,19.73-69.69,14.62-7.81-2.03-8.27-10.1-3.48-15.69,5.38-6.27,40.79-13.06,50.82-15.79,5.11-1.39,20-7.78,23.9-6,5.11,2.33,8.43,12.87,4.85,17.84,1.46.16,2.76,1.06,4.28.96,4.42-.31,20.86-8.1,26.65-10.08,23.11-7.91,46.72-14.29,68.92-24.6l11.99,45.18Z"/>
      <path class="cls-1" d="M98.5,404.79c-15.8,3.27-30.82,10.4-46.33,14.96-9.98,2.94-28.28,9.04-37.17,2.42-10.02-7.47,1.01-12.75,7.55-15.62,22.79-10,48.91-14.75,71.85-24.73,7.04-2.05,5.43,6.19,7.52,9.42,2.5,3.86,16.01-.92,19.96-2.17,7.09-2.23,43.53-17.21,47.46-16.05,4.02,6.4,4.74,15.03,6.67,22.33.81,3.05,5.25,13.39,4.11,15.22l-81.33,34.62-1.77-.78,1.48-39.62Z"/>
      <path class="cls-1" d="M221.32,745.36c-.48-.85-.69-3.11.36-3.77,20.48-6.72,42.01-10.18,61.71-19.19l12.98,13.02c-12.72,6.05-26.39,10.05-39.24,15.76-2.66,1.19-13.53,7.84-14.35,7.92-2.53.26-20.6-12.23-21.47-13.74Z"/>
      <path class="cls-1" d="M299.22,402.78c-3.11,1.06-8.06,2.26-10.6-.34-1.77-1.8-9.45-24.53-10.81-28.76-15.02-46.7-17.39-88.25,14.76-128.62,33.57-42.14,127.51-68.38,178.55-88.85,64.41-25.84,128.38-53.11,193.11-78.15,32.22-12.47,89.96-38.22,123.04-35.24,6.16.55,30.3,7.04,32.84,12.54,3.49,7.58-5.35,3.68-7.97,3.14-30.6-6.31-43.94-.4-72.17,9.38-89.46,31.02-179.3,70.86-267.62,105.96-40.72,16.18-86.22,30.68-125.42,49.31-38.03,18.08-66.67,62.22-64.07,104.94,1.56,25.67,12.46,49.58,16.38,74.69Z"/>
      <path class="cls-1" d="M813.15,88.85c-.83-.92-1.44-2.34-.82-3.55.54-1.23,6.87-6.41,8.33-7.18,2.54-1.34,10.31-3.96,12.91-3.46,2.39.45,8.91,6.58,10.66,8.67,9.62,11.48,17.79,47.46,22.4,63.52,5.78,20.15,10.42,40.74,16.41,60.82.84,2.8,4.37,8.26,2.73,10.84-2.26,1.21-8.82,6.09-11.18,4.41-9.32-24.03-14.31-49.69-22.44-74.14-6.69-20.11-14.03-39.39-30.17-53.82-2.22-1.98-7.45-4.55-8.85-6.1Z"/>
      <path class="cls-1" d="M499.82,266.01c19.6-4.07,23.06,20.32,9.44,29.7-9.67,6.66-22.55-4.26-21.51-14.68.57-5.69,6.26-13.81,12.08-15.02Z"/>
    </g>
  </g>
</svg>