<?xml version="1.0" encoding="UTF-8"?>
<svg id="Layer_1" data-name="Layer 1" xmlns="http://www.w3.org/2000/svg" viewBox="0 0 1080 1080">
  <defs>
    <style>
      .cls-1 {
        fill: #fff;
      }

      .cls-2 {
        fill: #5045e6;
      }
    </style>
  </defs>
  <path class="cls-1" d="M1061.77,18.23v1043.53H18.23V18.23h1043.53ZM651.5,82.9c-1.81-3.77-6.54-4.07-10.26-4.7-46.45-7.79-118.57-.86-164.67,9.82-156.97,36.35-274.99,139.19-328.04,291.71-2.75,7.89-20.7,66.36-18.32,69.04l57.49-27.04c.99-1.91-2.36-9.52-2.98-12.5-4.18-20.11-7.48-41.66-4.03-62.02,9.68-57.12,42.42-93.18,94.35-116.09,64.51-28.46,134.24-52.69,200.04-78.95,51.16-20.42,101.9-42.1,153.26-62.01,7.48-2.9,15.19-6.21,23.15-7.26ZM953.31,275.36c-3.29-3.29-10.46-6.97-14.84-8.81-4.11-1.73-9.42-1.2-12.07-5.3s-7.97-24.27-9.91-30.63c-14.92-48.95-23.45-108.43-80.4-126.19-18.2-5.67-30.03-1.98-46.78-4.38-7.41-1.07-15.91-8.3-23.4-11.35-40.6-16.55-77.03,4.07-114.4,18.86-107.24,42.46-214.15,85.99-321.49,128.36-37.23,14.7-70.15,21.05-98.48,52.12-40.84,44.79-31.46,93.26-15.9,146.27,12.56,42.81,27.94,84.82,41.71,127.22,8.14,25.07,19.47,54.6,25.65,79.57.6,2.42,2.14,7.57,1.51,9.72-.75,2.57-12.51,7.23-15.61,8.58-37.23,16.25-76.22,27.99-113.58,43.77-12.56,5.3-24.46,12.11-36.73,17.33-10.68,4.54-51.8,15.11-56.42,21.77-2.82,4.06-2,9.64,2.47,11.97,9.53,4.97,46.12-3.13,58.03-5.53,21.37-4.31,42.52-10.61,63.99-14.22,2.78.49,7.77,10.61,9.76,13.47,2.22,3.17,12.77,14.98,10.59,18.44-.55.87-16.47,7.24-18.92,8.15-19.16,7.09-58.49,15.28-73.65,25.78-10.7,7.42-5.55,15.42,5.88,16.97,18.19,2.46,48.78-7.24,67.61-11.05,13.23-2.68,26.62-4.45,39.79-7.51,31.52-7.32,62.41-17.72,93.15-27.63l3.37.59c9.2,12.72,21.19,23.69,35.75,29.88,6.58,2.8,13.51,3.9,19.79,7.24,1.27,1.44-.07,2.02-1.13,2.79-5.57,3.98-15.43,8.14-21.89,10.93-27.08,11.66-56.76,20.44-84.34,31.5-8.26,3.31-15.95,8.27-24.17,11.54-22.97,9.14-48.37,13.48-71.69,20.99-5.4,1.74-17.86,5.02-17.37,12.48.63,9.63,18.01,8.69,24.6,8.26,34.74-2.26,71.19-13.49,104.49-22.94,1.64-.47,3.41-.19,5.08-.23l-7.1-3.02c-4.87-6.36-4.03-11.48,3.26-14.81,16.05-7.35,33.29-11.75,49.74-17.84,88.95-32.93,177.97-65.55,268.16-94.81,2.04-1.45,4.01-2.77,3.54-5.62l-2.34.06c-21.14,4.72-43.44,15.12-64.22,19.78-4.3.96-11.44,2.69-14.53-1.04-.85-3.78,18.43-12.93,22-14.66,19.15-9.25,39.43-15.9,59.08-23.94,80.41-32.89,161.7-64.2,241.66-98.14,48.29-20.5,111.16-37.63,117.44-100.72,2.64-26.48-9.67-50.82-15.32-76.06,4.15-3.51,9.53-5.5,14.29-8.96,35.59-25.86,18.91-62.36,9.25-96.93-5.28-18.89-11.56-44.66-18.77-62.31-1.16-2.83-4.08-7.64-6.18-9.74ZM177.26,224.02c-10.43,2.16-11.8,21.24,2.6,19.1,12.31-1.83,8.89-21.49-2.6-19.1ZM430.43,942.07c3.33,3.22,9.72,4.21,14.27,5.51,67.43,19.18,129.35,25.95,199.27,15.44,147.61-22.19,259.52-101.6,334.6-229.16,67.37-114.45,72.08-251.93,27.69-375.84l-1.45-.95c-1.14,1.54,6.21,23.24,7.06,27.2,4.86,22.5.7,48.45-14.3,66.45-2.67,3.2-15.78,13.9-15.97,15.96,6.19,21.65,13.24,43.73,11.66,66.61-2.78,40.1-37.02,78.2-71.79,95.22-36.86,18.04-80.12,35.13-118.46,50.48-31.58,12.65-66.75,23.05-97.44,36.74-11.82,5.27-21.5,13.6-33.86,16.34-1.91,1.33-.54,10.61-.9,13.58-2.48,20.5-47.96,28.57-64.23,34.23-75.95,26.46-150.68,56.19-227.55,80.4-20.27,6.38-41.04,11.07-61.53,16.66l-.54,2.42,37.24,24.57,4.05.31c105.78-34.87,210.67-71.97,314.46-112.28,14.17-5.5,38.17-18.93,52.87-19.52,8.24-.33,18.35,5.42,17.63,14.69-.86,11.17-13.35,15.01-21.98,18.6-21.05,8.76-43.72,15.63-65.18,23.63-76.94,28.7-154.98,56.88-233.56,81.14-15.95,4.92-45.05,15.41-60.4,16.84-13.06,1.21-8.63-7.65-15.12-11.37-5.37-3.08-19.91,5.39-26.4,7.49-20.23,6.56-47.27,9.84-65.82,17.2-16.12,6.39-18.7,21.54,1.44,21.78,5.51.07,15.2-1.42,20.96-2.27,25.1-3.73,54.21-9.93,79.12-15.48,50.17-11.17,98.9-31.64,147.74-47.26,6.79-2.17,32.3-11.9,35.09-1.71.17,7.46-11.04,11.75-16.96,15.01-16.82,9.29-35.29,15.85-53.55,21.74-12.54,4.04-24.88,8.66-38.17,9.62ZM126.35,479.66l-1.48,39.62,1.77.78,81.33-34.62c1.14-1.83-3.3-12.17-4.11-15.22-1.94-7.3-2.66-15.92-6.67-22.33-3.92-1.16-40.37,13.82-47.46,16.05-3.95,1.25-17.46,6.03-19.96,2.17-2.09-3.22-.48-11.47-7.52-9.42-22.94,9.98-49.06,14.73-71.85,24.73-6.54,2.87-17.57,8.15-7.55,15.62,8.89,6.63,27.18.52,37.17-2.42,15.51-4.56,30.54-11.7,46.33-14.96ZM132.23,605.07c2.53,2.16,19.7-6.42,23.39-7.8,25.89-9.65,51.58-19.64,76.49-31.69.79-1.26-.43-5.3-.83-6.95-1.44-5.88-12.98-44.17-15.55-46.23-3.12-2.5-12.23,3.84-16.03,5.39-5.28,2.14-10.8,4.07-16.16,6.05-10.88,4.01-47.37,18.2-56.6,17.58-4.43-.3-6.34-4.36-9.86-4.78-7.26-.86-33.06,8.68-41.44,11.56-8.09,2.78-40.02,13.69-44.43,18.31-1.29,1.35-3.14,4.59-3.32,6.42-1.15,11.54,19.25,7.95,25.85,6.45,23.09-5.23,46.48-16.84,70.04-21.4,1.48.41,2.29,2.88,2.5,4.3,1.12,7.49,1,16.16,2.13,23.94.93,6.38,2.27,12.63,3.81,18.87ZM255.56,641.7l-11.99-45.18c-22.2,10.31-45.81,16.69-68.92,24.6-5.78,1.98-22.23,9.77-26.65,10.08-1.52.11-2.83-.8-4.28-.96,3.58-4.98.26-15.51-4.85-17.84-3.9-1.78-18.78,4.61-23.9,6-10.03,2.73-45.44,9.52-50.82,15.79-4.79,5.59-4.33,13.65,3.48,15.69,19.62,5.11,50.18-10.47,69.69-14.62,3.7.71,7.08,17.32,8.57,21.3s8.07,19.4,10.79,21.06c.95.58,1.76,1.11,2.94.98l95.93-36.9ZM249.17,820.23c.86,1.52,18.93,14,21.47,13.74.82-.08,11.68-6.74,14.35-7.92,12.85-5.72,26.52-9.71,39.24-15.76l-12.98-13.02c-19.7,9.01-41.23,12.47-61.71,19.19-1.05.65-.84,2.91-.36,3.77Z"/>
  <path class="cls-2" d="M177.26,224.02c11.49-2.38,14.91,17.27,2.6,19.1-14.4,2.14-13.03-16.94-2.6-19.1Z"/>
  <path class="cls-2" d="M953.31,275.36c2.1,2.1,5.03,6.91,6.18,9.74,7.22,17.66,13.5,43.42,18.77,62.31,9.66,34.57,26.34,71.07-9.25,96.93-4.76,3.46-10.13,5.46-14.29,8.96,5.65,25.24,17.96,49.58,15.32,76.06-6.29,63.09-69.15,80.23-117.44,100.72-79.96,33.94-161.25,65.25-241.66,98.14-19.65,8.04-39.93,14.69-59.08,23.94-3.57,1.73-22.85,10.88-22,14.66,3.09,3.73,10.23,2.01,14.53,1.04,20.78-4.66,43.08-15.05,64.22-19.78l2.34-.06c.47,2.85-1.5,4.17-3.54,5.62-90.19,29.25-179.22,61.87-268.16,94.81-16.45,6.09-33.68,10.49-49.74,17.84-7.28,3.33-8.13,8.45-3.26,14.81l7.1,3.02c-1.67.04-3.44-.23-5.08.23-33.3,9.45-69.75,20.68-104.49,22.94-6.59.43-23.97,1.36-24.6-8.26-.49-7.46,11.97-10.74,17.37-12.48,23.32-7.51,48.71-11.85,71.69-20.99,8.22-3.27,15.92-8.23,24.17-11.54,27.58-11.06,57.27-19.84,84.34-31.5,6.47-2.78,16.33-6.94,21.89-10.93,1.07-.76,2.4-1.35,1.13-2.79-6.28-3.34-13.21-4.44-19.79-7.24-14.56-6.2-26.55-17.17-35.75-29.88l-3.37-.59c-30.74,9.91-61.63,20.3-93.15,27.63-13.17,3.06-26.56,4.83-39.79,7.51-18.82,3.81-49.42,13.51-67.61,11.05-11.43-1.54-16.58-9.55-5.88-16.97,15.16-10.5,54.49-18.69,73.65-25.78,2.45-.91,18.38-7.28,18.92-8.15,2.18-3.47-8.37-15.27-10.59-18.44-2-2.85-6.98-12.98-9.76-13.47-21.47,3.61-42.62,9.91-63.99,14.22-11.9,2.4-48.49,10.5-58.03,5.53-4.47-2.33-5.29-7.91-2.47-11.97,4.62-6.66,45.74-17.23,56.42-21.77,12.28-5.22,24.17-12.03,36.73-17.33,37.36-15.78,76.35-27.52,113.58-43.77,3.11-1.36,14.87-6.01,15.61-8.58.62-2.15-.91-7.3-1.51-9.72-6.18-24.97-17.5-54.5-25.65-79.57-13.78-42.4-29.15-84.41-41.71-127.22-15.55-53.01-24.93-101.49,15.9-146.27,28.32-31.07,61.25-37.42,98.48-52.12,107.34-42.38,214.24-85.9,321.49-128.36,37.37-14.79,73.8-35.41,114.4-18.86,7.49,3.05,15.99,10.29,23.4,11.35,16.75,2.41,28.58-1.29,46.78,4.38,56.95,17.75,65.47,77.23,80.4,126.19,1.94,6.36,7.17,26.41,9.91,30.63s7.97,3.58,12.07,5.3c4.38,1.84,11.54,5.52,14.84,8.81ZM757.68,109.93c1.93-2.59-10.03-5.91-11.57-6.27-19.72-4.61-37.96,3.52-55.99,10.62,5.69,4.1,13.58-1.6,19.26-2.94,8.68-2.05,21.61-3.47,30.4-2.31,3.02.4,6.85,2.75,10.69,2.65,2.47-.06,4.78-1.49,7.22-1.75ZM327.07,477.65c-3.92-25.11-14.82-49.01-16.38-74.69-2.59-42.72,26.04-86.86,64.07-104.94,39.19-18.63,84.7-33.13,125.42-49.31,88.33-35.11,178.16-74.94,267.62-105.96,28.22-9.79,41.56-15.69,72.17-9.38,2.62.54,11.46,4.45,7.97-3.14-2.53-5.51-26.67-11.99-32.84-12.54-33.08-2.97-90.82,22.77-123.04,35.24-64.73,25.05-128.7,52.31-193.11,78.15-51.03,20.47-144.97,46.71-178.55,88.85-32.16,40.36-29.78,81.91-14.76,128.62,1.36,4.24,9.05,26.97,10.81,28.76,2.55,2.6,7.5,1.4,10.6.34ZM679.49,118.63c-2.97.79-6.84,1.44-9.65,2.41-13.74,4.73-28.75,12.93-42.49,18.33-13.19,5.19-27.39,8.72-40.52,14.51-2.83,1.25-6.83,2.76-8.7,5.29,11.73-1.52,26.59-5.3,37.33-10.44,4.73-2.26,9.44-6.67,14.8-8.37,14.63-4.63,27.94-7.88,41.52-16.4l7.7-5.33ZM829.03,156.19c2.3-12.53-27.8-5.37-18.33,2.58,4.38,3.67,13.24-1.68,18.33-2.58ZM841,163.72c1.39,1.55,6.63,4.12,8.85,6.1,16.14,14.43,23.48,33.71,30.17,53.82,8.13,24.44,13.12,50.11,22.44,74.14,2.36,1.68,8.92-3.2,11.18-4.41,1.64-2.58-1.89-8.03-2.73-10.84-5.99-20.08-10.63-40.66-16.41-60.82-4.61-16.05-12.78-52.03-22.4-63.52-1.76-2.09-8.27-8.22-10.66-8.67-2.6-.49-10.36,2.12-12.91,3.46-1.46.77-7.79,5.95-8.33,7.18-.62,1.21-.01,2.62.82,3.55ZM784.47,155.51c-1.79.36-17.5,7.09-18.2,7.93-2.3,2.26,2.05,8.84,3.98,9.8.72.64,1.19.19,1.85-.04,2.65-.91,18.28-11.18,18.37-13.52-.71-3.74-2.12-4.95-6.01-4.17ZM566.54,164.01c-4.68-.09-9.4,1.52-13.76,3.12-13.06,4.77-25.6,11.42-38.38,16.64-13.6,5.56-36.17,10.05-47.97,17.68-1.29.83-2.6,1.16-2.21,3.09,11.78-2.46,23.5-5.82,34.73-10.15,20.6-7.94,40.94-16.42,60.86-26.03l6.73-4.36ZM723.21,180.68c-1.58,1.93-2.25,8.47.33,9.3l2.55-.08c4.14-3.46,21.34-8.46,22.72-13.08,1.78-5.99-3.24-5.59-7.6-4.68-2.72.57-16.53,6.75-18,8.53ZM675.72,208.31c1.29.32,2.74.25,4.01-.14,2.73-.84,17.19-8.13,19.01-9.95,1.63-1.63,3.23-3.94,1.57-6.29-2.71-3.83-32.13,5.78-24.59,16.38ZM633.41,215.41c-2.64,2.76.2,10.44,3.09,10.41,1.23-.01,21.27-10.13,21.65-11.3,1.1-3.43-2.46-7.32-6.11-7.06-1.01.07-17.94,7.22-18.63,7.95ZM445.87,210.34c-1.2-1.11-27.12,9.86-30.57,11.41-1.67.75-3.61,1.67-5.16,2.6-1.24.73-2.44-.18-1.9,2.39,3.28.25,6.36-.79,9.44-1.65,5.96-1.66,20.01-6.63,25.04-9.63,1.15-.69,3.93-4.4,3.16-5.12ZM605.9,225.98c-3.46.48-14.97,5.24-17.64,7.52-4.66,3.97-4.74,9.48,1.71,10.5,3.37-2.77,24.11-9.09,23.79-12.73s-4.57-5.73-7.85-5.28ZM401.47,228.69c-17.84,3.4-33.73,13.05-50.49,19.48-56.04,21.51-122.99,33.08-129.91,105.64-.31,3.22-.65,19.82.35,21.62,1.39,2.49,3.21-2.52,3.56-3.23,7.27-14.58,8.87-31.36,17.39-46.32,21.28-37.34,58.77-47.69,94.12-66.13,4.54-2.36,10.1-7.34,14.88-9.25s11-2.39,16.09-4.18c11.65-4.08,25.5-8.55,33.99-17.64ZM794.16,306.65c1.86-1.45-2.41-15.99-3.38-18.88-16.11-48.21-67.66-66.57-106.97-31.12-22.34,20.14-26.46,52.83-23.61,81.58.39,3.98,1.67,17.26,5.79,16.54l55.85-21.94c1.94-3.06-6.28-5.22-8.87-6.83-14.73-9.17-21.45-23.34-16.98-40.73,7.68-29.85,46.33-37.87,60.87-9.92,8.55,16.43,1.86,30.71-7.8,44.68l1.35,2.28,43.72-15.64ZM559.59,246.24c-3.31.34-22.09,7.89-23.94,9.94-2.26,2.5-.54,8.8,3.14,8.05,5.1-4.11,22.73-7.13,25.12-12.65,1.62-3.75-.43-5.74-4.31-5.34ZM509.33,263.64c-2.26.47-18.74,8.48-20.02,9.92-2,2.23-2.16,9.28,2.41,9.26,5.1-.02,17.58-9.84,23.68-11.16,2.53-5.26-.01-9.26-6.06-8.01ZM728.46,263.65c-10.59,2.16-13.56,17.05-7.01,24.91,10.51,12.63,29.29-3.43,21.94-19.05-3.15-6.69-7.88-7.3-14.93-5.86ZM452.64,298.18c1.28,1.26,15.8-6.1,18.04-7.54,7.4-4.76-1.97-9.7-9.09-7.15-5.55,1.99-10.79,8.53-8.95,14.69ZM430.21,296.42c-4.94.55-16.78,8.54-10.38,13.89,1.75.87,14.79-6.44,15.92-8.27,2.37-3.82-2.02-6.01-5.54-5.62ZM970.71,413.7c6.4-5.91,2.22-20.59.25-28.1-4.77-18.25-10.46-36.51-15.88-54.59-2.29-7.62-5.38-24.82-9.7-30.85-1.07-1.49-1.9-2.11-3.82-2.09-.8-.01-6.5,6.8-8.27,8.23-9.92,7.95-29.72,16.6-41.74,21.97-21.68,9.7-65.26,22.43-79.79,39.91-11.42,13.73-16.51,46.42-8.59,62.61,1.13,2.32,9.65,13.95,12.42,11.23.82-9.66-3.75-19.95-3.93-29.43-.37-20.01,11.34-37.8,28.68-46.69,21.77-11.16,46.33-18,68.57-27.96,10.45-4.68,20.28-10.74,30.66-15.59,12.91,29.55,22.34,60.97,28.55,92.64.1.12,2.18-.93,2.57-1.29ZM377.53,331.76c3.45,1.97,14.78-8.06,17.21-10.87,3.53-4.09,5.24-10.51-2.2-8.99-7.89,1.61-22.9,10.44-15.01,19.86ZM537.59,405.33l60.79-21.71c-6.89-9.18-8.77-21.19-13.99-31.36-16.89-32.89-55.46-47.38-88.61-28.78-33.83,18.98-46.57,54.23-41.11,91.89.56,3.85,3.43,17.21,4.91,20.18.34.68.49,1.38,1.36,1.59,18.59-7.18,37.79-13.81,56.04-21.98,1.94-.87,11.87-5.34,11.88-6.44-2.2-2.63-6-1-9.05-1.55-42.58-7.59-33.49-67.2.97-71.23,37.59-4.4,51.98,39.91,25,62.65-1.76,1.49-4.28,2.52-6.4,4.24-1.01.82-2.41.02-1.81,2.51ZM353.07,362.71c1.81-6.21,12.89-15.82,10.25-22.03-1.05-2.46-4.76-4.58-7.51-3.73s-8.84,12.73-9.3,15.83c-.65,4.4,1.2,11.23,6.56,9.92ZM527.67,340.88c-5.82,1.21-11.51,9.33-12.08,15.02-1.04,10.42,11.84,21.34,21.51,14.68,13.63-9.38,10.16-33.77-9.44-29.7ZM341.39,373.71c-6.19-6.35-9.99,13.13-10.27,16.78-.78,10.16,7.85,14.66,9.48,7.54.9-3.94,3.18-21.87.79-24.33ZM730.37,378.6c-2.52-2.12-5.62-.57-8.36.24-12.99,3.82-27.76,12.13-40.6,17.31-33.18,13.38-66.94,25.46-100.07,38.94-7.41,3.02-29.56,10.83-33.6,16.6-5.34,7.63,5.93,25.96,11.11,32.29,31.32,38.26,98.47,32.32,133.64,2.41,16.97-14.43,30.92-39.51,36.5-61,2.31-8.89,8.43-40.84,1.37-46.8ZM885.63,411.13c0-12.91-10.46-23.37-23.37-23.37s-23.37,10.46-23.37,23.37,10.46,23.37,23.37,23.37,23.37-10.46,23.37-23.37ZM343.36,418.09c-2.25-1.56-5.9-.83-7.46,1.34-2.21,3.14,2.39,20.32,4.44,21.7,2.72,1.83,5.28-.16,7.89-1.19l-4.87-21.85ZM349.05,457.59c-6.38,1.84-1.06,21.8,2.19,24.6,3.04,2.62,9.08-.95,8.7-5.78-.19-2.38-6.16-17.71-7.69-18.5-1.06-.55-2.05-.65-3.2-.32ZM938.04,466.32c-2.44-1.49-10.96.83-11.47,4.2-.62,4.07,7.84,26.01,9.43,32.11,2.94,11.31,4.98,20.63,4.12,32.54-.52,7.29-4.52,16.6-4.76,22.34-.43,10.12,8.61-6.12,9.77-8.64,8.39-18.22,8.39-33.61,3.19-52.76-.96-3.52-8.93-28.95-10.28-29.77ZM371.46,522.06c1.45-1.71-5.18-19.4-7.14-21.17-2.53-2.28-8.13-.92-7.92,3.2.13,2.54,3.09,15.66,4.47,17.36,2.34,2.89,7.53,1.26,10.59.6ZM372.26,538.71c-8.23,1.59.33,23.23,2.84,23.83,1.42.34,6.43-.9,6.95-2.4.99-2.82-1.65-9.42-2.77-12.44-1.28-3.47-2.35-9.9-7.02-8.99ZM930.48,542.42c-4.86-.05-6.79,5.63-10.1,8.71-5.32,4.95-19.97,11.82-7.77,17.36,9.32-4.86,17.29-15.41,17.87-26.07ZM891.72,571.51c-3.33-2.11-20.56,5.16-23.01,8.07-2.08,2.46-.55,5.58.47,8.2.98,1.51,2.07.89,3.39.55,4.19-1.08,24.61-10.45,19.14-16.82ZM389.11,606.9c1.52.89,6.25-.27,7.12-1.73,1.2-2.01-5.66-21.41-8.26-22.7-13.08-6.48-2.25,22.44,1.14,24.43ZM504.49,586.06c-3.26.73-4.91,3.69-5.97,6.58-9.82,26.7,25.19,27.93,24.67,6.25-.25-10.42-9.11-14.98-18.7-12.82ZM851.08,589.95c-1.47-1.13-2.85-1.15-4.6-.82-1.01.19-17.87,7.78-18.72,8.39-3.81,2.72-.6,10.92,5.46,9.37.9-.23,15.79-8.04,16.52-8.62,2.85-2.28,3.3-5.22,1.34-8.31ZM457.21,605.39c-74.61,30.14-149.96,58.32-224.69,88.08-13.89,5.53-30.62,9.83-43.79,17.03-4.81,2.63-5.89,4.39-6.37,10.03-.56,6.58-.98,8.71,6.13,8.09,20.96-1.84,54.64-14.14,75.44-21.11,30.87-10.35,61.07-22.71,91.65-33.84,32.65-11.89,69.01-22.35,100.6-36.48,5.89-2.63,16.32-7.4,18-13.86,3.48-13.46-4.45-18.59-16.97-17.93ZM802.81,606.28c-2.66.46-16.65,8.32-18.62,10.42-3.45,3.68-2.18,11,3.6,8.48,2.39-1.04,18.96-9.44,19.69-10.28.64-.74,1.33-1.36,1.3-2.44l-3.52-6.2c-.83-.3-1.62-.12-2.46.03ZM577.9,623.76c-10.22,1.26-27.17,11.46-37.43,15.66-80.21,32.87-160.78,64.03-242.25,93.69-27.79,10.12-55.35,20.89-83.29,30.62-6.82,2.81-2.81,15.35,3.56,16.21,12.16,1.63,36.25-5.02,48.59-8.46,96.48-26.91,193.54-67.48,285.96-105.97,10.36-4.31,34.37-10.44,39.98-19.88,7.37-12.4-1.81-23.53-15.13-21.88ZM759.39,626.57c-5.73.73-24.68,9.69-18.56,17.17,3.26,3.99,6.63-1.17,9.78-2.69,5.09-2.46,17.16-4.99,13.35-12.72-1.18-1.93-2.51-2.02-4.56-1.76ZM718.83,644.01c-3.19-3.32-20.81,7.79-21.78,11.07-1.19,4,.85,6.07,4.89,4.89,3.83-3.46,24.64-7.9,16.89-15.97ZM674.41,660.42c-6.84,1.35-19.68,6.79-14.29,15.76,2.8,2.06,21.17-8.19,21.8-9.22.85-1.4.94-5.39-.43-6.35-2.24-.77-4.79-.64-7.08-.19ZM641.72,677.69c-1.94-3.12-12.63,4.58-15.88,4.65-1.88,1.04-.99,4.59.07,5.85,3.71,4.4,18.86-5.61,15.81-10.5ZM606.85,689.3c-2.95.58-14.12,5.29-13.78,8.65,1.17,11.52,14.11-.3,18.95-2.47,1.88-1.62-.92-5.7-2.72-6.21-.83-.29-1.62-.14-2.45.03ZM569.2,706.74c-2.67.44-16.38,7.07-18.14,8.89-3.77,3.89-1.35,9.49,4.15,8.05,3.84-3.8,20.29-7.67,20.78-12.97-.49-4.43-2.92-4.62-6.79-3.97ZM516.1,729.91c-2.55.49-13.69,5.79-15.69,7.5-3.21,2.76-4.1,7.62.96,7.81,3.54.13,22.75-7.82,22.73-11.18-1.35-3.98-4.07-4.88-8-4.13ZM468.58,747.53c-4.72-.14-23.79,7.51-14.57,14.08,4.02,2.86,20.52-2.42,20.77-7.26.18-3.4-2.72-6.72-6.21-6.83ZM423.82,777.13c-7.03,10.14,19.37,12.65,20.13,9.01-.58-4.8-17.72-10.53-20.13-9.01Z"/>
  <path class="cls-2" d="M430.43,942.07c13.29-.96,25.63-5.58,38.17-9.62,18.26-5.89,36.73-12.46,53.55-21.74,5.92-3.27,17.13-7.56,16.96-15.01-2.79-10.19-28.3-.46-35.09,1.71-48.85,15.62-97.57,36.08-147.74,47.26-24.91,5.55-54.03,11.75-79.12,15.48-5.76.86-15.45,2.34-20.96,2.27-20.13-.24-17.55-15.39-1.44-21.78,18.56-7.36,45.59-10.64,65.82-17.2,6.49-2.1,21.03-10.57,26.4-7.49,6.49,3.72,2.06,12.58,15.12,11.37,15.35-1.43,44.45-11.91,60.4-16.84,78.58-24.26,156.62-52.44,233.56-81.14,21.45-8,44.13-14.87,65.18-23.63,8.63-3.59,21.12-7.44,21.98-18.6.72-9.27-9.39-15.02-17.63-14.69-14.7.59-38.71,14.02-52.87,19.52-103.79,40.31-208.68,77.41-314.46,112.28l-4.05-.31-37.24-24.57.54-2.42c20.5-5.59,41.26-10.28,61.53-16.66,76.87-24.2,151.59-53.94,227.55-80.4,16.27-5.67,61.75-13.74,64.23-34.23.36-2.97-1.01-12.25.9-13.58,12.36-2.74,22.04-11.06,33.86-16.34,30.69-13.69,65.85-24.1,97.44-36.74,38.33-15.35,81.6-32.44,118.46-50.48,34.77-17.01,69.01-55.12,71.79-95.22,1.59-22.88-5.47-44.96-11.66-66.61.2-2.05,13.3-12.75,15.97-15.96,15-18,19.16-43.95,14.3-66.45-.85-3.95-8.2-25.66-7.06-27.2l1.45.95c44.39,123.91,39.68,261.4-27.69,375.84-75.09,127.56-187,206.96-334.6,229.16-69.92,10.51-131.84,3.75-199.27-15.44-4.55-1.3-10.94-2.29-14.27-5.51ZM778.64,749.2c-9.01,2.03-15.54,19.79-9.9,27.83,12.56,17.89,38.31,2.94,34.09-17.68-1.97-9.62-16.17-11.96-24.19-10.15Z"/>
  <path class="cls-2" d="M651.5,82.9c-7.97,1.05-15.67,4.36-23.15,7.26-51.36,19.91-102.1,41.59-153.26,62.01-65.79,26.26-135.53,50.49-200.04,78.95-51.93,22.91-84.67,58.97-94.35,116.09-3.45,20.36-.15,41.91,4.03,62.02.62,2.99,3.97,10.59,2.98,12.5l-57.49,27.04c-2.38-2.67,15.57-61.14,18.32-69.04,53.05-152.52,171.07-255.36,328.04-291.71,46.1-10.68,118.22-17.61,164.67-9.82,3.72.62,8.45.93,10.26,4.7Z"/>
  <path class="cls-2" d="M132.23,605.07c-1.54-6.24-2.88-12.48-3.81-18.87-1.13-7.77-1.01-16.44-2.13-23.94-.21-1.41-1.02-3.89-2.5-4.3-23.57,4.57-46.96,16.18-70.04,21.4-6.59,1.49-27,5.08-25.85-6.45.18-1.83,2.03-5.06,3.32-6.42,4.41-4.62,36.34-15.54,44.43-18.31,8.38-2.87,34.18-12.42,41.44-11.56,3.52.42,5.43,4.48,9.86,4.78,9.23.62,45.72-13.56,56.6-17.58,5.36-1.98,10.87-3.9,16.16-6.05,3.8-1.54,12.91-7.89,16.03-5.39,2.57,2.06,14.11,40.35,15.55,46.23.4,1.65,1.62,5.69.83,6.95-24.91,12.05-50.6,22.04-76.49,31.69-3.69,1.38-20.87,9.96-23.39,7.8Z"/>
  <path class="cls-2" d="M255.56,641.7l-95.93,36.9c-1.18.13-1.99-.4-2.94-.98-2.72-1.66-9.34-17.21-10.79-21.06s-4.87-20.58-8.57-21.3c-19.51,4.14-50.08,19.73-69.69,14.62-7.81-2.03-8.27-10.1-3.48-15.69,5.38-6.27,40.79-13.06,50.82-15.79,5.11-1.39,20-7.78,23.9-6,5.11,2.33,8.43,12.87,4.85,17.84,1.46.16,2.76,1.06,4.28.96,4.42-.31,20.86-8.1,26.65-10.08,23.11-7.91,46.72-14.29,68.92-24.6l11.99,45.18Z"/>
  <path class="cls-2" d="M126.35,479.66c-15.8,3.27-30.82,10.4-46.33,14.96-9.98,2.94-28.28,9.04-37.17,2.42-10.02-7.47,1.01-12.75,7.55-15.62,22.79-10,48.91-14.75,71.85-24.73,7.04-2.05,5.43,6.19,7.52,9.42,2.5,3.86,16.01-.92,19.96-2.17,7.09-2.23,43.53-17.21,47.46-16.05,4.02,6.4,4.74,15.03,6.67,22.33.81,3.05,5.25,13.39,4.11,15.22l-81.33,34.62-1.77-.78,1.48-39.62Z"/>
  <path class="cls-2" d="M249.17,820.23c-.48-.85-.69-3.11.36-3.77,20.48-6.72,42.01-10.18,61.71-19.19l12.98,13.02c-12.72,6.05-26.39,10.05-39.24,15.76-2.66,1.19-13.53,7.84-14.35,7.92-2.53.26-20.6-12.23-21.47-13.74Z"/>
  <path class="cls-1" d="M730.37,378.6c7.05,5.95.94,37.91-1.37,46.8-5.58,21.49-19.54,46.56-36.5,61-35.17,29.91-102.33,35.85-133.64-2.41-5.19-6.34-16.45-24.67-11.11-32.29,4.04-5.77,26.19-13.58,33.6-16.6,33.13-13.48,66.89-25.56,100.07-38.94,12.84-5.18,27.61-13.49,40.6-17.31,2.74-.81,5.85-2.36,8.36-.24Z"/>
  <path class="cls-1" d="M327.07,477.65c-3.11,1.06-8.06,2.26-10.6-.34-1.77-1.8-9.45-24.53-10.81-28.76-15.02-46.7-17.39-88.25,14.76-128.62,33.57-42.14,127.51-68.38,178.55-88.85,64.41-25.84,128.38-53.11,193.11-78.15,32.22-12.47,89.96-38.22,123.04-35.24,6.16.55,30.3,7.04,32.84,12.54,3.49,7.58-5.35,3.68-7.97,3.14-30.6-6.31-43.94-.4-72.17,9.38-89.46,31.02-179.3,70.86-267.62,105.96-40.72,16.18-86.22,30.68-125.42,49.31-38.03,18.08-66.67,62.22-64.07,104.94,1.56,25.67,12.46,49.58,16.38,74.69Z"/>
  <path class="cls-1" d="M577.9,623.76c13.32-1.65,22.49,9.48,15.13,21.88-5.61,9.44-29.61,15.56-39.98,19.88-92.42,38.48-189.48,79.06-285.96,105.97-12.34,3.44-36.43,10.09-48.59,8.46-6.37-.86-10.39-13.4-3.56-16.21,27.94-9.73,55.5-20.51,83.29-30.62,81.47-29.66,162.04-60.82,242.25-93.69,10.26-4.2,27.21-14.4,37.43-15.66Z"/>
  <path class="cls-1" d="M457.21,605.39c12.52-.66,20.45,4.47,16.97,17.93-1.67,6.46-12.11,11.23-18,13.86-31.59,14.13-67.95,24.59-100.6,36.48-30.58,11.14-60.78,23.49-91.65,33.84-20.8,6.97-54.48,19.27-75.44,21.11-7.11.62-6.69-1.51-6.13-8.09.48-5.64,1.57-7.4,6.37-10.03,13.17-7.2,29.9-11.5,43.79-17.03,74.74-29.76,150.08-57.94,224.69-88.08Z"/>
  <path class="cls-1" d="M537.59,405.33c-.61-2.49.8-1.68,1.81-2.51,2.11-1.72,4.63-2.76,6.4-4.24,26.99-22.74,12.6-67.04-25-62.65-34.45,4.03-43.55,63.64-.97,71.23,3.05.54,6.85-1.08,9.05,1.55,0,1.1-9.94,5.57-11.88,6.44-18.25,8.17-37.45,14.79-56.04,21.98-.87-.21-1.02-.91-1.36-1.59-1.48-2.97-4.35-16.33-4.91-20.18-5.47-37.65,7.28-72.91,41.11-91.89,33.15-18.6,71.72-4.11,88.61,28.78,5.22,10.17,7.1,22.19,13.99,31.36l-60.79,21.71Z"/>
  <path class="cls-1" d="M970.71,413.7c-.39.36-2.48,1.41-2.57,1.29-6.2-31.68-15.64-63.09-28.55-92.64-10.37,4.84-20.2,10.9-30.66,15.59-22.24,9.96-46.8,16.8-68.57,27.96-17.35,8.89-29.06,26.68-28.68,46.69.18,9.48,4.74,19.77,3.93,29.43-2.78,2.72-11.29-8.91-12.42-11.23-7.92-16.19-2.83-48.88,8.59-62.61,14.54-17.48,58.12-30.21,79.79-39.91,12.02-5.38,31.82-14.02,41.74-21.97,1.78-1.42,7.47-8.24,8.27-8.23,1.91-.02,2.75.6,3.82,2.09,4.32,6.03,7.41,23.23,9.7,30.85,5.42,18.07,11.12,36.34,15.88,54.59,1.96,7.51,6.14,22.19-.25,28.1Z"/>
  <path class="cls-1" d="M841,163.72c-.83-.92-1.44-2.34-.82-3.55.54-1.23,6.87-6.41,8.33-7.18,2.54-1.34,10.31-3.96,12.91-3.46,2.39.45,8.91,6.58,10.66,8.67,9.62,11.48,17.79,47.46,22.4,63.52,5.78,20.15,10.42,40.74,16.41,60.82.84,2.8,4.37,8.26,2.73,10.84-2.26,1.21-8.82,6.09-11.18,4.41-9.32-24.03-14.31-49.69-22.44-74.14-6.69-20.11-14.03-39.39-30.17-53.82-2.22-1.98-7.45-4.55-8.85-6.1Z"/>
  <path class="cls-1" d="M401.47,228.69c-8.49,9.09-22.35,13.56-33.99,17.64-5.1,1.79-11.31,2.27-16.09,4.18s-10.35,6.89-14.88,9.25c-35.36,18.43-72.84,28.79-94.12,66.13-8.52,14.95-10.13,31.74-17.39,46.32-.35.71-2.18,5.72-3.56,3.23-1-1.79-.66-18.4-.35-21.62,6.92-72.55,73.86-84.12,129.91-105.64,16.76-6.43,32.66-16.08,50.49-19.48Z"/>
  <circle class="cls-1" cx="862.26" cy="411.13" r="23.37"/>
  <path class="cls-1" d="M938.04,466.32c1.34.82,9.32,26.25,10.28,29.77,5.2,19.15,5.2,34.54-3.19,52.76-1.16,2.52-10.2,18.76-9.77,8.64.24-5.73,4.24-15.05,4.76-22.34.86-11.9-1.19-21.22-4.12-32.54-1.58-6.1-10.04-28.04-9.43-32.11.51-3.37,9.03-5.68,11.47-4.2Z"/>
  <path class="cls-1" d="M527.67,340.88c19.6-4.07,23.06,20.32,9.44,29.7-9.67,6.66-22.55-4.26-21.51-14.68.57-5.69,6.26-13.81,12.08-15.02Z"/>
  <path class="cls-1" d="M504.49,586.06c9.58-2.15,18.45,2.41,18.7,12.82.52,21.69-34.49,20.45-24.67-6.25,1.06-2.89,2.71-5.84,5.97-6.58Z"/>
  <path class="cls-1" d="M566.54,164.01l-6.73,4.36c-19.92,9.6-40.26,18.09-60.86,26.03-11.23,4.33-22.95,7.69-34.73,10.15-.39-1.93.92-2.26,2.21-3.09,11.8-7.62,34.36-12.12,47.97-17.68,12.78-5.22,25.32-11.87,38.38-16.64,4.36-1.59,9.08-3.21,13.76-3.12Z"/>
  <path class="cls-1" d="M679.49,118.63l-7.7,5.33c-13.58,8.52-26.89,11.76-41.52,16.4-5.36,1.7-10.08,6.11-14.8,8.37-10.74,5.14-25.61,8.92-37.33,10.44,1.87-2.53,5.87-4.04,8.7-5.29,13.12-5.79,27.33-9.32,40.52-14.51,13.74-5.4,28.75-13.6,42.49-18.33,2.81-.97,6.68-1.61,9.65-2.41Z"/>
  <path class="cls-1" d="M757.68,109.93c-2.44.26-4.75,1.69-7.22,1.75-3.84.1-7.67-2.26-10.69-2.65-8.79-1.15-21.72.27-30.4,2.31-5.67,1.34-13.57,7.03-19.26,2.94,18.03-7.1,36.27-15.23,55.99-10.62,1.54.36,13.5,3.69,11.57,6.27Z"/>
  <path class="cls-1" d="M509.33,263.64c6.05-1.25,8.6,2.75,6.06,8.01-6.1,1.32-18.58,11.14-23.68,11.16-4.57.02-4.4-7.03-2.41-9.26,1.28-1.43,17.76-9.45,20.02-9.92Z"/>
  <path class="cls-1" d="M605.9,225.98c3.29-.45,7.53,1.68,7.85,5.28s-20.42,9.96-23.79,12.73c-6.45-1.01-6.36-6.53-1.71-10.5,2.67-2.28,14.18-7.04,17.64-7.52Z"/>
  <path class="cls-1" d="M353.07,362.71c-5.36,1.31-7.21-5.52-6.56-9.92.46-3.11,6.59-14.99,9.3-15.83s6.46,1.27,7.51,3.73c2.64,6.21-8.44,15.82-10.25,22.03Z"/>
  <path class="cls-1" d="M802.81,606.28c.83-.14,1.62-.33,2.46-.03l3.52,6.2c.03,1.08-.67,1.71-1.3,2.44-.73.84-17.3,9.24-19.69,10.28-5.79,2.52-7.06-4.8-3.6-8.48,1.97-2.1,15.97-9.96,18.62-10.42Z"/>
  <path class="cls-1" d="M559.59,246.24c3.88-.4,5.94,1.6,4.31,5.34-2.39,5.51-20.01,8.54-25.12,12.65-3.68.74-5.4-5.55-3.14-8.05,1.85-2.04,20.64-9.6,23.94-9.94Z"/>
  <path class="cls-1" d="M723.21,180.68c1.46-1.79,15.28-7.96,18-8.53,4.36-.91,9.39-1.31,7.6,4.68-1.37,4.62-18.58,9.62-22.72,13.08l-2.55.08c-2.58-.84-1.91-7.38-.33-9.3Z"/>
  <path class="cls-1" d="M851.08,589.95c1.95,3.09,1.5,6.04-1.34,8.31-.73.58-15.62,8.39-16.52,8.62-6.06,1.56-9.27-6.64-5.46-9.37.85-.61,17.71-8.2,18.72-8.39,1.76-.33,3.13-.31,4.6.82Z"/>
  <path class="cls-1" d="M633.41,215.41c.7-.73,17.62-7.88,18.63-7.95,3.65-.25,7.21,3.63,6.11,7.06-.38,1.17-20.42,11.29-21.65,11.3-2.89.03-5.73-7.65-3.09-10.41Z"/>
  <path class="cls-1" d="M377.53,331.76c-7.89-9.42,7.11-18.25,15.01-19.86,7.44-1.51,5.73,4.9,2.2,8.99-2.42,2.81-13.75,12.84-17.21,10.87Z"/>
  <path class="cls-1" d="M759.39,626.57c2.06-.26,3.38-.16,4.56,1.76,3.82,7.73-8.25,10.25-13.35,12.72-3.14,1.52-6.51,6.68-9.78,2.69-6.12-7.49,12.82-16.44,18.56-17.17Z"/>
  <path class="cls-1" d="M341.39,373.71c2.4,2.46.12,20.39-.79,24.33-1.63,7.12-10.27,2.62-9.48-7.54.28-3.65,4.09-23.13,10.27-16.78Z"/>
  <path class="cls-1" d="M675.72,208.31c-7.53-10.61,21.88-20.21,24.59-16.38,1.67,2.35.07,4.66-1.57,6.29-1.83,1.82-16.28,9.11-19.01,9.95-1.27.39-2.72.47-4.01.14Z"/>
  <path class="cls-1" d="M569.2,706.74c3.87-.64,6.3-.46,6.79,3.97-.5,5.3-16.94,9.17-20.78,12.97-5.5,1.44-7.92-4.16-4.15-8.05,1.77-1.82,15.47-8.45,18.14-8.89Z"/>
  <path class="cls-1" d="M349.05,457.59c1.15-.33,2.14-.23,3.2.32,1.53.79,7.5,16.12,7.69,18.5.38,4.83-5.67,8.41-8.7,5.78-3.24-2.8-8.56-22.76-2.19-24.6Z"/>
  <path class="cls-1" d="M784.47,155.51c3.88-.78,5.3.43,6.01,4.17-.09,2.34-15.72,12.61-18.37,13.52-.66.23-1.13.68-1.85.04-1.93-.96-6.28-7.53-3.98-9.8.69-.84,16.41-7.57,18.2-7.93Z"/>
  <path class="cls-1" d="M891.72,571.51c5.47,6.37-14.95,15.74-19.14,16.82-1.32.34-2.41.96-3.39-.55-1.03-2.62-2.55-5.73-.47-8.2,2.45-2.91,19.68-10.18,23.01-8.07Z"/>
  <path class="cls-1" d="M468.58,747.53c3.49.1,6.39,3.42,6.21,6.83-.25,4.84-16.75,10.12-20.77,7.26-9.22-6.57,9.85-14.22,14.57-14.08Z"/>
  <path class="cls-1" d="M371.46,522.06c-3.06.66-8.24,2.29-10.59-.6-1.38-1.7-4.34-14.82-4.47-17.36-.21-4.12,5.39-5.48,7.92-3.2,1.96,1.77,8.59,19.46,7.14,21.17Z"/>
  <path class="cls-1" d="M674.41,660.42c2.29-.45,4.84-.57,7.08.19,1.37.96,1.28,4.95.43,6.35-.63,1.03-18.99,11.28-21.8,9.22-5.39-8.97,7.45-14.41,14.29-15.76Z"/>
  <path class="cls-1" d="M389.11,606.9c-3.39-1.99-14.22-30.91-1.14-24.43,2.6,1.29,9.46,20.69,8.26,22.7-.87,1.46-5.6,2.62-7.12,1.73Z"/>
  <path class="cls-1" d="M930.48,542.42c-.58,10.66-8.56,21.21-17.87,26.07-12.2-5.54,2.44-12.41,7.77-17.36,3.32-3.08,5.24-8.76,10.1-8.71Z"/>
  <path class="cls-1" d="M516.1,729.91c3.93-.75,6.66.15,8,4.13.02,3.36-19.19,11.32-22.73,11.18-5.07-.19-4.18-5.05-.96-7.81,2-1.71,13.14-7.01,15.69-7.5Z"/>
  <path class="cls-1" d="M343.36,418.09l4.87,21.85c-2.61,1.03-5.17,3.01-7.89,1.19-2.05-1.38-6.65-18.56-4.44-21.7,1.56-2.17,5.21-2.9,7.46-1.34Z"/>
  <path class="cls-1" d="M372.26,538.71c4.68-.91,5.74,5.52,7.02,8.99,1.12,3.02,3.76,9.62,2.77,12.44-.52,1.5-5.54,2.73-6.95,2.4-2.51-.6-11.07-22.24-2.84-23.83Z"/>
  <path class="cls-1" d="M718.83,644.01c7.75,8.06-13.06,12.5-16.89,15.97-4.04,1.18-6.08-.89-4.89-4.89.98-3.28,18.6-14.39,21.78-11.07Z"/>
  <path class="cls-1" d="M452.64,298.18c-1.84-6.16,3.41-12.71,8.95-14.69,7.11-2.55,16.48,2.39,9.09,7.15-2.24,1.44-16.76,8.8-18.04,7.54Z"/>
  <path class="cls-1" d="M606.85,689.3c.83-.17,1.62-.32,2.45-.03,1.8.5,4.59,4.58,2.72,6.21-4.84,2.17-17.78,13.99-18.95,2.47-.34-3.35,10.83-8.06,13.78-8.65Z"/>
  <path class="cls-1" d="M829.03,156.19c-5.08.9-13.94,6.25-18.33,2.58-9.48-7.94,20.62-15.11,18.33-2.58Z"/>
  <path class="cls-1" d="M445.87,210.34c.78.72-2,4.43-3.16,5.12-5.04,3-19.09,7.97-25.04,9.63-3.08.86-6.16,1.9-9.44,1.65-.53-2.57.66-1.66,1.9-2.39,1.56-.92,3.5-1.85,5.16-2.6,3.45-1.55,29.37-12.52,30.57-11.41Z"/>
  <path class="cls-1" d="M430.21,296.42c3.52-.39,7.91,1.81,5.54,5.62-1.13,1.82-14.18,9.14-15.92,8.27-6.4-5.35,5.44-13.34,10.38-13.89Z"/>
  <path class="cls-1" d="M423.82,777.13c2.4-1.52,19.55,4.22,20.13,9.01-.76,3.63-27.16,1.13-20.13-9.01Z"/>
  <path class="cls-1" d="M641.72,677.69c3.05,4.89-12.1,14.9-15.81,10.5-1.06-1.26-1.95-4.81-.07-5.85,3.25-.07,13.94-7.77,15.88-4.65Z"/>
  <path class="cls-1" d="M778.64,749.2c8.02-1.81,22.22.53,24.19,10.15,4.22,20.62-21.53,35.57-34.09,17.68-5.64-8.04.89-25.8,9.9-27.83Z"/>
  <g>
    <path class="cls-1" d="M794.16,306.65l-43.72,15.64-1.35-2.28c9.67-13.97,16.36-28.24,7.8-44.68-14.55-27.95-53.2-19.93-60.87,9.92-4.47,17.39,2.25,31.57,16.98,40.73,2.59,1.61,10.81,3.78,8.87,6.83l-55.85,21.94c-4.13.72-5.4-12.56-5.79-16.54-2.86-28.75,1.27-61.44,23.61-81.58,39.31-35.45,90.86-17.09,106.97,31.12.97,2.89,5.24,17.43,3.38,18.88Z"/>
    <path class="cls-1" d="M728.46,263.65c7.05-1.44,11.78-.83,14.93,5.86,7.35,15.62-11.43,31.67-21.94,19.05-6.55-7.86-3.57-22.75,7.01-24.91Z"/>
  </g>
</svg>